<svg width="24" height="24" viewBox="0 0 24 24" fill="none" xmlns="http://www.w3.org/2000/svg">
<g clip-path="url(#clip0_1_3779)">
<path d="M9.46154 18.8853C4.84615 20.1678 4.84615 16.3204 3 16.3204M15.9231 21.0001L15.9231 17.6687C15.9624 17.2056 15.8754 16.7382 15.6804 16.3131C15.5025 15.9256 15.7076 15.3641 16.1273 15.2884C18.6581 14.8319 21 13.5455 21 9.45241C20.9998 8.47657 20.6685 7.53133 20.062 6.74648C19.8138 6.42526 19.7261 6.0023 19.8144 5.60606C19.9732 4.89279 19.9355 4.15247 19.7033 3.45441C19.6104 3.17506 19.3637 2.98406 19.0704 3.00946C18.5761 3.05226 17.6708 3.26371 16.2874 4.06914C16.0534 4.20541 15.7752 4.24931 15.5105 4.19185C13.6569 3.78947 11.7277 3.78947 9.8741 4.19185C9.60944 4.24931 9.33126 4.20541 9.09721 4.06914C7.71384 3.26371 6.80855 3.05226 6.31419 3.00946C6.02088 2.98406 5.77421 3.17506 5.68128 3.45441C5.44907 4.15247 5.41146 4.89278 5.57025 5.60604C5.65846 6.00229 5.57077 6.42526 5.32255 6.74649C4.71067 7.53837 4.37896 8.49337 4.38462 9.47805C4.38462 13.5512 6.73814 14.8302 9.27616 15.3066C9.69235 15.3847 9.89107 15.9394 9.71235 16.3233C9.51619 16.7447 9.42659 17.2084 9.46154 17.6687L9.46155 21.0001" stroke="black" stroke-width="2" stroke-linecap="round" stroke-linejoin="round"/>
</g>
<defs>
<clipPath id="clip0_1_3779">
<rect width="24" height="24" fill="white"/>
</clipPath>
</defs>
</svg>
